<?xml version="1.0" encoding="UTF-8" ?>
<svg version="1.1" width="420" height="420" xmlns="http://www.w3.org/2000/svg" shape-rendering="crispEdges">
<rect x="0" y="0" width="420" height="105" fill="#F0F0F0" />
<rect x="0" y="105" width="35" height="315" fill="#F0F0F0" />
<rect x="35" y="105" width="141" height="71" fill="#654DD8" />
<rect x="176" y="105" width="69" height="210" fill="#F0F0F0" />
<rect x="245" y="105" width="141" height="71" fill="#654DD8" />
<rect x="386" y="105" width="34" height="315" fill="#F0F0F0" />
<rect x="35" y="176" width="71" height="70" fill="#654DD8" />
<rect x="106" y="176" width="70" height="69" fill="#F0F0F0" />
<rect x="245" y="176" width="70" height="69" fill="#F0F0F0" />
<rect x="315" y="176" width="71" height="70" fill="#654DD8" />
<rect x="106" y="245" width="70" height="71" fill="#654DD8" />
<rect x="245" y="245" width="70" height="71" fill="#654DD8" />
<rect x="35" y="246" width="70" height="174" fill="#F0F0F0" />
<rect x="105" y="246" width="1" height="70" fill="#654DD8" />
<rect x="315" y="246" width="1" height="70" fill="#654DD8" />
<rect x="316" y="246" width="70" height="174" fill="#F0F0F0" />
<rect x="176" y="315" width="69" height="71" fill="#654DD8" />
<rect x="105" y="316" width="70" height="104" fill="#F0F0F0" />
<rect x="175" y="316" width="1" height="70" fill="#654DD8" />
<rect x="245" y="316" width="1" height="70" fill="#654DD8" />
<rect x="246" y="316" width="70" height="104" fill="#F0F0F0" />
<rect x="175" y="386" width="71" height="34" fill="#F0F0F0" />
</svg>